<svg xmlns="http://www.w3.org/2000/svg" xmlns:xlink="http://www.w3.org/1999/xlink" version="1.1" viewBox="3.16 0.59 23.68 28.42"><g id="surface1"><path style=" stroke:none;fill-rule:nonzero;fill:rgb(40%,60%,80%);fill-opacity:1;" d="M 9.929688 8.585938 C 10.15625 8.597656 10.363281 8.328125 10.382812 7.984375 C 10.402344 7.636719 10.234375 7.34375 10.007812 7.332031 C 9.78125 7.316406 9.574219 7.585938 9.554688 7.933594 C 9.535156 8.277344 9.703125 8.570312 9.929688 8.585938 Z M 9.929688 8.585938 "></path><path style=" stroke:none;fill-rule:nonzero;fill:rgb(40%,60%,80%);fill-opacity:1;" d="M 5.3125 11.253906 C 5.859375 11.527344 6.511719 12.101562 7.675781 12.1875 C 7.6875 12.1875 7.699219 12.1875 7.710938 12.1875 C 7.722656 12.1875 7.734375 12.1875 7.746094 12.191406 C 7.863281 12.199219 7.976562 12.207031 8.089844 12.207031 C 9.09375 12.207031 9.910156 11.859375 10.433594 11.683594 C 11.90625 11.191406 12.78125 10.441406 12.769531 9.449219 C 12.757812 8.664062 12.5625 8.082031 12.480469 7.664062 C 12.398438 7.246094 12.476562 6.261719 12.476562 6.261719 C 12.476562 6.261719 13.214844 3.230469 12.160156 3.230469 C 12.136719 3.230469 12.113281 3.230469 12.085938 3.230469 C 10.929688 3.367188 9.796875 5.375 9.796875 5.375 L 9.1875 5.328125 L 7.339844 5.183594 L 6.738281 5.136719 C 6.738281 5.136719 5.9375 2.976562 4.816406 2.664062 C 4.765625 2.648438 4.714844 2.644531 4.667969 2.644531 C 3.71875 2.644531 3.949219 5.597656 3.949219 5.597656 C 3.949219 5.597656 3.871094 6.582031 3.722656 6.980469 C 3.601562 7.308594 3.1875 7.660156 3.164062 8.933594 C 3.148438 9.714844 3.570312 10.378906 5.3125 11.253906 Z M 10.101562 7.300781 C 10.695312 7.335938 11.074219 8.058594 11.074219 8.058594 C 11.074219 8.058594 11.042969 8.558594 10.363281 8.71875 C 9.6875 8.878906 9.230469 8.445312 9.042969 8.234375 C 8.851562 8.023438 9.507812 7.265625 10.101562 7.300781 Z M 7.417969 9.074219 C 7.464844 8.890625 7.765625 8.734375 8.109375 8.816406 C 8.449219 8.902344 8.503906 9.078125 8.503906 9.078125 C 8.550781 9.21875 8.15625 9.671875 7.945312 9.65625 C 7.738281 9.636719 7.375 9.257812 7.417969 9.074219 Z M 6.125 6.933594 C 5.960938 6.984375 5.800781 7.164062 5.722656 7.40625 C 5.617188 7.738281 5.710938 8.058594 5.929688 8.128906 C 6.148438 8.195312 6.414062 7.980469 6.515625 7.648438 C 6.574219 7.460938 6.570312 7.28125 6.515625 7.144531 C 6.832031 7.441406 6.949219 7.910156 6.949219 7.910156 C 6.949219 7.910156 6.796875 8.382812 6.101562 8.382812 C 5.40625 8.378906 5.0625 7.851562 4.933594 7.605469 C 4.804688 7.363281 5.5625 6.8125 6.125 6.933594 Z M 6.125 6.933594 "></path><path style=" stroke:none;fill-rule:nonzero;fill:rgb(40%,60%,80%);fill-opacity:1;" d="M 26.433594 0.59375 C 25.820312 0.546875 25.820312 1.195312 25.636719 1.753906 C 25.445312 2.308594 24.882812 3.003906 24.273438 3.234375 C 23.660156 3.464844 20.089844 4.898438 18.445312 6.546875 C 16.804688 8.195312 15.488281 9.289062 15.488281 9.289062 L 17.179688 10.972656 C 17.179688 10.972656 19.0625 8.179688 19.996094 7.300781 C 21.164062 6.203125 23.378906 5.414062 25.402344 4.210938 C 27.152344 3.164062 27.046875 0.640625 26.433594 0.59375 Z M 26.433594 0.59375 "></path><path style=" stroke:none;fill-rule:nonzero;fill:rgb(40%,60%,80%);fill-opacity:1;" d="M 13.179688 8.5625 C 13.222656 8.824219 13.257812 9.113281 13.261719 9.4375 C 13.277344 10.261719 12.824219 11.398438 10.59375 12.148438 C 10.519531 12.171875 10.441406 12.199219 10.351562 12.230469 C 9.828125 12.417969 9.03125 12.699219 8.089844 12.699219 C 7.964844 12.699219 7.835938 12.691406 7.714844 12.683594 L 7.679688 12.679688 L 7.667969 12.679688 L 7.636719 12.675781 C 6.625 12.601562 5.949219 12.195312 5.453125 11.902344 C 5.320312 11.824219 5.199219 11.75 5.089844 11.695312 C 4.738281 11.515625 4.429688 11.34375 4.15625 11.171875 C 4.195312 11.480469 4.195312 11.796875 4.117188 12.042969 C 3.882812 12.789062 3.179688 13.886719 3.882812 16.257812 C 4.585938 18.632812 5.660156 21.230469 5.660156 21.230469 C 5.660156 21.230469 6.644531 25.585938 6.460938 26.003906 C 6.269531 26.421875 5.839844 26.652344 5.9375 27.207031 C 6.035156 27.765625 7.164062 27.625 7.164062 27.625 C 7.164062 27.625 7.488281 26.003906 7.417969 25.355469 C 7.351562 24.707031 7.578125 21.785156 7.417969 21 C 7.261719 20.210938 6.492188 18.335938 5.9375 18.066406 C 5.9375 18.066406 6.835938 18.359375 7.214844 19.285156 C 7.589844 20.210938 7.875 20.863281 7.96875 21.371094 C 8.0625 21.878906 8.019531 26.007812 7.96875 26.238281 C 7.917969 26.46875 7.726562 27.71875 7.726562 27.953125 C 7.726562 28.183594 7.753906 28.878906 8.515625 28.972656 C 9.277344 29.0625 10.546875 29.113281 10.261719 27.90625 C 10.261719 27.90625 9.984375 27.328125 9.972656 27.070312 C 9.9375 26.375 10.300781 24.199219 10.300781 24.199219 C 10.300781 24.199219 10.894531 21.183594 11.074219 19.703125 C 11.253906 18.21875 14.257812 14.789062 14.257812 14.789062 C 14.257812 14.789062 12.238281 18.078125 12.097656 18.726562 C 11.953125 19.375 11.625 20.765625 11.625 20.765625 C 11.625 20.765625 13.128906 20.398438 13.363281 21.183594 C 13.597656 21.972656 13.828125 25.125 13.78125 25.589844 C 13.734375 26.054688 13.273438 26.703125 14.257812 26.886719 C 15.238281 27.074219 15.988281 26.84375 15.707031 25.960938 L 15.519531 25.359375 C 15.519531 25.359375 15.847656 20.339844 16.039062 19.488281 C 16.226562 18.636719 16.882812 17.65625 17.121094 16.976562 C 17.355469 16.292969 17.824219 13.707031 17.167969 12.210938 C 16.820312 11.410156 14.945312 9.207031 13.179688 8.5625 Z M 13.179688 8.5625 "></path></g></svg>